<svg id="Group_3812" data-name="Group 3812" xmlns="http://www.w3.org/2000/svg" width="35.791" height="25.742" viewBox="0 0 35.791 25.742">
  <rect id="_2" data-name="2" width="35.791" height="25.742" fill="#0d3286"/>
  <g id="Group_3813" data-name="Group 3813" transform="translate(-116.572 -120.653)">
    <path id="Path_17031" data-name="Path 17031" d="M241.717,125.719l.225.675.711.006a.1.1,0,0,1,.056.173l-.572.422.214.678a.1.1,0,0,1-.147.107l-.579-.414-.578.414a.1.1,0,0,1-.147-.107l.214-.678-.572-.422a.1.1,0,0,1,.056-.173l.711-.006.225-.675A.1.1,0,0,1,241.717,125.719Z" transform="translate(-106.69 0)" fill="#ffe15a"/>
    <path id="Path_17032" data-name="Path 17032" d="M241.717,353.581l.225.675.711.005a.1.1,0,0,1,.056.173l-.572.422.214.678a.1.1,0,0,1-.147.107l-.579-.414-.578.414a.1.1,0,0,1-.147-.107l.214-.678-.572-.422a.1.1,0,0,1,.056-.173l.711-.005.225-.675A.1.1,0,0,1,241.717,353.581Z" transform="translate(-106.69 -213.378)" fill="#ffe15a"/>
    <path id="Path_17033" data-name="Path 17033" d="M355.648,239.651l.225.675.711.006a.1.1,0,0,1,.056.173l-.572.422.214.678a.1.1,0,0,1-.147.107l-.578-.414-.578.414a.1.1,0,0,1-.147-.107l.214-.678-.572-.422a.1.1,0,0,1,.056-.173l.711-.006.225-.675A.1.1,0,0,1,355.648,239.651Z" transform="translate(-213.379 -106.69)" fill="#ffe15a"/>
    <path id="Path_17034" data-name="Path 17034" d="M127.785,239.651l.225.675.711.006a.1.1,0,0,1,.056.173l-.572.422.214.678a.1.1,0,0,1-.147.107l-.579-.414-.578.414a.1.1,0,0,1-.147-.107l.214-.678-.572-.422a.1.1,0,0,1,.056-.173l.711-.006.225-.675A.1.1,0,0,1,127.785,239.651Z" transform="translate(0 -106.69)" fill="#ffe15a"/>
    <path id="Path_17035" data-name="Path 17035" d="M144.889,180.154l.225.675.711.006a.1.1,0,0,1,.056.173l-.572.422.214.678a.1.1,0,0,1-.147.107l-.578-.414-.578.414a.1.1,0,0,1-.147-.107l.214-.678-.572-.422a.1.1,0,0,1,.056-.173l.711-.006.225-.675A.1.1,0,0,1,144.889,180.154Z" transform="translate(-16.017 -50.975)" fill="#ffe15a"/>
    <path id="Path_17036" data-name="Path 17036" d="M342.223,294.086l.225.675.711.006a.1.1,0,0,1,.056.173l-.572.422.214.678a.1.1,0,0,1-.147.107l-.578-.414-.578.414a.1.1,0,0,1-.147-.107l.214-.678-.572-.422a.1.1,0,0,1,.056-.173l.711-.006.225-.675A.1.1,0,0,1,342.223,294.086Z" transform="translate(-200.808 -157.665)" fill="#ffe15a"/>
    <path id="Path_17037" data-name="Path 17037" d="M300.521,138.453l.225.675.711.006a.1.1,0,0,1,.056.173l-.572.422.214.678a.1.1,0,0,1-.147.107l-.578-.414-.579.414a.1.1,0,0,1-.147-.107l.214-.678-.572-.422a.1.1,0,0,1,.056-.173l.711-.006.225-.675A.1.1,0,0,1,300.521,138.453Z" transform="translate(-161.756 -11.924)" fill="#ffe15a"/>
    <path id="Path_17038" data-name="Path 17038" d="M186.59,335.787l.225.675.711.006a.1.1,0,0,1,.056.173l-.572.422.214.678a.1.1,0,0,1-.147.107l-.578-.414-.578.414a.1.1,0,0,1-.147-.107l.214-.678-.572-.422a.1.1,0,0,1,.056-.173l.711-.005.225-.675A.1.1,0,0,1,186.59,335.787Z" transform="translate(-55.067 -196.716)" fill="#ffe15a"/>
    <path id="Path_17039" data-name="Path 17039" d="M342.042,180.154l-.225.675-.711.006a.1.1,0,0,0-.056.173l.572.422-.214.678a.1.1,0,0,0,.147.107l.578-.414.578.414a.1.1,0,0,0,.147-.107l-.214-.678.572-.422a.1.1,0,0,0-.056-.173l-.711-.006-.225-.675A.1.1,0,0,0,342.042,180.154Z" transform="translate(-200.808 -50.975)" fill="#ffe15a"/>
    <path id="Path_17040" data-name="Path 17040" d="M144.708,294.086l-.225.675-.711.006a.1.1,0,0,0-.056.173l.572.422-.214.678a.1.1,0,0,0,.147.107l.578-.414.578.414a.1.1,0,0,0,.147-.107l-.214-.678.572-.422a.1.1,0,0,0-.056-.173l-.711-.006-.225-.675A.1.1,0,0,0,144.708,294.086Z" transform="translate(-16.017 -157.665)" fill="#ffe15a"/>
    <path id="Path_17041" data-name="Path 17041" d="M186.409,138.453l-.225.675-.711.006a.1.1,0,0,0-.056.173l.572.422-.214.678a.1.1,0,0,0,.147.107l.578-.414.578.414a.1.1,0,0,0,.147-.107l-.214-.678.572-.422a.1.1,0,0,0-.056-.173l-.711-.006-.225-.675A.1.1,0,0,0,186.409,138.453Z" transform="translate(-55.067 -11.924)" fill="#ffe15a"/>
    <path id="Path_17042" data-name="Path 17042" d="M300.34,335.787l-.225.675-.711.006a.1.1,0,0,0-.056.173l.572.422-.214.678a.1.1,0,0,0,.147.107l.578-.414.578.414a.1.1,0,0,0,.147-.107l-.214-.678.572-.422a.1.1,0,0,0-.056-.173l-.711-.005-.225-.675A.1.1,0,0,0,300.34,335.787Z" transform="translate(-161.756 -196.716)" fill="#ffe15a"/>
  </g>
</svg>
