<svg id="Group_3784" data-name="Group 3784" xmlns="http://www.w3.org/2000/svg" width="44.955" height="32" viewBox="0 0 44.955 32">
  <g id="iconfinder_116_Ensign_Flag_Nation_india_2634312" transform="translate(0 0)">
    <rect id="Rectangle_457" data-name="Rectangle 457" width="44.955" height="32" fill="#fff"/>
    <rect id="Rectangle_458" data-name="Rectangle 458" width="44.955" height="10.67" fill="#f0953d"/>
    <rect id="Rectangle_459" data-name="Rectangle 459" width="44.955" height="10.67" transform="translate(0 21.33)" fill="#3d8a41"/>
    <path id="Path_1916" data-name="Path 1916" d="M616.41,611.61a4.8,4.8,0,1,0,4.8,4.8,4.805,4.805,0,0,0-4.8-4.8m0,.471-.118,2.41.129,1.371.128-1.371-.118-2.41c.128,0,.246.011.364.021v.022a.2.2,0,0,0,.2.2.2.2,0,0,0,.193-.171c.118.021.236.043.354.075l-.739,2.293-.236,1.361.482-1.3.5-2.357a3.249,3.249,0,0,1,.343.107.159.159,0,0,0-.011.075.2.2,0,0,0,.2.193.2.2,0,0,0,.182-.118c.107.053.214.107.321.171l-1.307,2.025-.579,1.254.8-1.125,1.1-2.153c.107.064.2.128.3.193a.224.224,0,0,0-.043.118.2.2,0,0,0,.2.2.228.228,0,0,0,.161-.075,2.9,2.9,0,0,1,.268.246l-1.789,1.618-.879,1.06,1.061-.878,1.618-1.789a2.921,2.921,0,0,1,.246.268.2.2,0,0,0,.129.353.161.161,0,0,0,.118-.043,2.984,2.984,0,0,1,.193.311l-2.2,1.093-1.125.8,1.253-.579,2.025-1.318a3.409,3.409,0,0,1,.171.343.188.188,0,0,0-.118.182.2.2,0,0,0,.2.2.159.159,0,0,0,.075-.011,3.007,3.007,0,0,1,.107.332l-2.357.5-1.3.482,1.361-.236,2.293-.739c.032.118.054.236.075.354a.2.2,0,0,0-.172.193.2.2,0,0,0,.2.2h.021c.011.118.021.236.021.364l-2.41-.118-1.382.129,1.371.128,2.411-.118c0,.118-.011.246-.021.364h-.021a.2.2,0,0,0-.2.2.2.2,0,0,0,.171.193c-.022.118-.043.236-.075.353l-.814-.268-1.478-.482-1.361-.236h0l1.3.482,2.357.5a3.206,3.206,0,0,1-.107.343c-.011,0-.021-.011-.032-.011h-.043a.2.2,0,0,0-.2.2.158.158,0,0,0,.011.075h0a.192.192,0,0,0,.054.075h0l.011.011h0l.011.011h0l.011.011c-.054.107-.107.214-.171.321l-2.025-1.307h0l-1.253-.579h0l.654.461.471.332h0l2.143,1.093a3.131,3.131,0,0,1-.2.311.215.215,0,0,0-.118-.032.2.2,0,0,0-.2.2.188.188,0,0,0,.075.15c-.075.1-.161.182-.236.268l-1.618-1.789-1.061-.879.878,1.061,1.789,1.617c-.086.086-.171.161-.257.236a.171.171,0,0,0-.128-.043.2.2,0,0,0-.2.2.249.249,0,0,0,.022.086c-.107.075-.214.139-.321.2l-1.1-2.143-.8-1.125h0l.579,1.254,1.307,2.025a2.222,2.222,0,0,1-.321.161.2.2,0,0,0-.386.086.181.181,0,0,0,.011.075c-.118.043-.236.075-.354.107l-.5-2.357-.482-1.3h0l.236,1.36.739,2.293c-.118.032-.236.053-.354.075a.2.2,0,0,0-.193-.171.2.2,0,0,0-.2.2v.021c-.118.011-.236.021-.364.021l.129-2.41L616.335,617l-.129,1.371.129,2.41c-.129,0-.246-.011-.375-.021v-.021a.2.2,0,0,0-.2-.2.2.2,0,0,0-.193.171,3.23,3.23,0,0,1-.343-.075l.739-2.293.236-1.36-.482,1.3-.5,2.357a3.252,3.252,0,0,1-.343-.107.161.161,0,0,0,.011-.075.2.2,0,0,0-.193-.2.2.2,0,0,0-.182.118c-.107-.053-.214-.107-.321-.171l1.307-2.025.578-1.253-.8,1.125-1.028,2.121c-.107-.064-.2-.129-.311-.193a.226.226,0,0,0,.043-.118.2.2,0,0,0-.2-.2.187.187,0,0,0-.15.075c-.1-.075-.182-.161-.268-.236l1.789-1.618.878-1.06h0l-1.061.878-1.618,1.789a2.921,2.921,0,0,1-.247-.268.2.2,0,0,0,.075-.15.2.2,0,0,0-.193-.2.161.161,0,0,0-.118.043,2.98,2.98,0,0,1-.193-.311l2.153-1.1,1.125-.8-1.254.579-2.025,1.318a2.14,2.14,0,0,1-.161-.311.2.2,0,0,0,.129-.182.2.2,0,0,0-.289-.182c-.043-.118-.075-.236-.107-.354l2.357-.5,1.3-.482-1.361.236-2.293.739c-.032-.118-.054-.236-.075-.354a.2.2,0,0,0,.171-.193.2.2,0,0,0-.2-.2H612.1c-.011-.118-.011-.236-.021-.364l2.41.118,1.371-.128-1.371-.128-2.41.128c0-.118.011-.246.021-.364h.032a.2.2,0,0,0,.2-.2.2.2,0,0,0-.182-.2c.021-.118.043-.236.075-.353l2.293.739,1.361.236-1.3-.482-2.357-.5a3.24,3.24,0,0,1,.107-.343.159.159,0,0,0,.075.011.2.2,0,0,0,.2-.193.2.2,0,0,0-.118-.182c.053-.107.107-.214.171-.321l2.025,1.307,1.253.579-1.125-.8-2.164-1.093c.064-.107.128-.2.193-.311a.226.226,0,0,0,.118.043.2.2,0,0,0,.2-.193.227.227,0,0,0-.075-.161,2.9,2.9,0,0,1,.246-.268l1.618,1.789,1.06.878-.878-1.061-1.789-1.618a2.9,2.9,0,0,1,.268-.247.2.2,0,0,0,.15.075.192.192,0,0,0,.193-.193.216.216,0,0,0-.032-.118c.1-.064.2-.139.3-.193l1.1,2.153.8,1.125-.579-1.254-1.307-2.025a1.788,1.788,0,0,1,.321-.161.2.2,0,0,0,.182.129.2.2,0,0,0,.2-.193.251.251,0,0,0-.021-.086c.118-.043.236-.075.354-.107l.5,2.357.482,1.3-.236-1.361-.739-2.293c.118-.032.236-.054.354-.075a.2.2,0,0,0,.193.171.2.2,0,0,0,.2-.2v-.022a1.247,1.247,0,0,1,.353-.032" transform="translate(-593.932 -600.415)" fill="#2a2874"/>
    <path id="Path_1917" data-name="Path 1917" d="M722.661,721.943a.718.718,0,1,1-.718.718.718.718,0,0,1,.718-.718" transform="translate(-700.184 -706.667)" fill="#fff"/>
    <path id="Path_1918" data-name="Path 1918" d="M726.844,726.287a.557.557,0,1,1-.557.557.567.567,0,0,1,.557-.557" transform="translate(-704.367 -710.85)" fill="#2a2874"/>
  </g>
</svg>
