<svg xmlns="http://www.w3.org/2000/svg" width="44.965" height="32.01" viewBox="0 0 44.965 32.01">
  <g id="iconfinder_274_Ensign_Flag_Nation_states_2634451" transform="translate(0 -106.699)">
    <rect id="Rectangle_482" data-name="Rectangle 482" width="44.965" height="2.441" transform="translate(0 136.267)" fill="#cb001c"/>
    <rect id="Rectangle_483" data-name="Rectangle 483" width="44.965" height="2.441" transform="translate(0 133.826)" fill="#fff"/>
    <rect id="Rectangle_484" data-name="Rectangle 484" width="44.965" height="2.441" transform="translate(0 131.334)" fill="#cb001c"/>
    <rect id="Rectangle_485" data-name="Rectangle 485" width="44.965" height="2.441" transform="translate(0 128.867)" fill="#fff"/>
    <rect id="Rectangle_486" data-name="Rectangle 486" width="44.965" height="2.441" transform="translate(0 126.411)" fill="#cb001c"/>
    <rect id="Rectangle_487" data-name="Rectangle 487" width="44.965" height="2.441" transform="translate(0 123.945)" fill="#fff"/>
    <rect id="Rectangle_488" data-name="Rectangle 488" width="44.965" height="2.441" transform="translate(0 121.478)" fill="#cb001c"/>
    <rect id="Rectangle_489" data-name="Rectangle 489" width="44.965" height="2.441" transform="translate(0 119.012)" fill="#fff"/>
    <rect id="Rectangle_490" data-name="Rectangle 490" width="44.965" height="2.441" transform="translate(0 116.556)" fill="#cb001c"/>
    <rect id="Rectangle_491" data-name="Rectangle 491" width="44.965" height="2.441" transform="translate(0 114.089)" fill="#fff"/>
    <rect id="Rectangle_492" data-name="Rectangle 492" width="44.965" height="2.441" transform="translate(0 111.622)" fill="#cb001c"/>
    <rect id="Rectangle_493" data-name="Rectangle 493" width="44.965" height="2.441" transform="translate(0 109.13)" fill="#fff"/>
    <rect id="Rectangle_494" data-name="Rectangle 494" width="44.965" height="2.441" transform="translate(0 106.7)" fill="#cb001c"/>
    <rect id="Rectangle_495" data-name="Rectangle 495" width="24.812" height="17.065" transform="translate(0 106.7)" fill="#2a3560"/>
    <path id="Path_1971" data-name="Path 1971" d="M13.591,124.4l.212.647h.669l-.541.393.2.647-.541-.4-.552.4.212-.647-.552-.393h.679Z" transform="translate(-11.352 -15.822)" fill="#fff"/>
    <path id="Path_1972" data-name="Path 1972" d="M13.591,151.2l.212.647h.669l-.541.4.2.637-.541-.393-.552.393.212-.637-.552-.4h.679Z" transform="translate(-11.352 -39.777)" fill="#fff"/>
    <path id="Path_1973" data-name="Path 1973" d="M13.591,178.1l.212.647h.669l-.541.393.2.647-.541-.4-.552.4.212-.647-.552-.393h.679Z" transform="translate(-11.352 -63.745)" fill="#fff"/>
    <path id="Path_1974" data-name="Path 1974" d="M13.591,204.9l.212.647h.669l-.541.4.2.637-.541-.393-.552.393.212-.637-.552-.4h.679Z" transform="translate(-11.352 -87.671)" fill="#fff"/>
    <path id="Path_1975" data-name="Path 1975" d="M13.591,231.8l.212.637h.669l-.541.4.2.647-.541-.4-.552.4.212-.647-.552-.4h.679Z" transform="translate(-11.352 -111.687)" fill="#fff"/>
    <path id="Path_1976" data-name="Path 1976" d="M32.291,138.5l.212.647h.669l-.541.4.2.637-.541-.393-.552.393.212-.637-.552-.4h.679Z" transform="translate(-28.068 -28.425)" fill="#fff"/>
    <path id="Path_1977" data-name="Path 1977" d="M32.291,165.4l.212.637h.669l-.541.4.2.647-.541-.4-.552.4.212-.647-.552-.4h.679Z" transform="translate(-28.068 -52.406)" fill="#fff"/>
    <path id="Path_1978" data-name="Path 1978" d="M32.291,192.2l.212.647h.669l-.541.4.2.637-.541-.393-.552.393.212-.637-.552-.4h.679Z" transform="translate(-28.068 -76.333)" fill="#fff"/>
    <path id="Path_1979" data-name="Path 1979" d="M32.291,219.1l.212.637h.669l-.541.4.2.647-.541-.4-.552.4.212-.647-.552-.4h.679Z" transform="translate(-28.068 -100.349)" fill="#fff"/>
    <path id="Path_1980" data-name="Path 1980" d="M51.191,124.4l.212.647h.679l-.552.393.212.647-.552-.4-.552.4.212-.647-.552-.393h.679Z" transform="translate(-44.962 -15.822)" fill="#fff"/>
    <path id="Path_1981" data-name="Path 1981" d="M51.191,151.2l.212.647h.679l-.552.4.212.637-.552-.393-.552.393.212-.637-.552-.4h.679Z" transform="translate(-44.962 -39.777)" fill="#fff"/>
    <path id="Path_1982" data-name="Path 1982" d="M51.191,178.1l.212.647h.679l-.552.393.212.647-.552-.4-.552.4.212-.647-.552-.393h.679Z" transform="translate(-44.962 -63.745)" fill="#fff"/>
    <path id="Path_1983" data-name="Path 1983" d="M51.191,204.9l.212.647h.679l-.552.4.212.637-.552-.393-.552.393.212-.637-.552-.4h.679Z" transform="translate(-44.962 -87.671)" fill="#fff"/>
    <path id="Path_1984" data-name="Path 1984" d="M51.191,231.8l.212.637h.679l-.552.4.212.647-.552-.4-.552.4.212-.647-.552-.4h.679Z" transform="translate(-44.962 -111.687)" fill="#fff"/>
    <path id="Path_1985" data-name="Path 1985" d="M69.891,138.5l.212.647h.679l-.552.4.212.637-.552-.393-.552.393.212-.637-.552-.4h.679Z" transform="translate(-61.677 -28.425)" fill="#fff"/>
    <path id="Path_1986" data-name="Path 1986" d="M69.891,165.4l.212.637h.679l-.552.4.212.647-.552-.4-.552.4.212-.647-.552-.4h.679Z" transform="translate(-61.677 -52.406)" fill="#fff"/>
    <path id="Path_1987" data-name="Path 1987" d="M69.891,192.2l.212.647h.679l-.552.4.212.637-.552-.393-.552.393.212-.637-.552-.4h.679Z" transform="translate(-61.677 -76.333)" fill="#fff"/>
    <path id="Path_1988" data-name="Path 1988" d="M69.891,219.1l.212.637h.679l-.552.4.212.647-.552-.4-.552.4.212-.647-.552-.4h.679Z" transform="translate(-61.677 -100.349)" fill="#fff"/>
    <path id="Path_1989" data-name="Path 1989" d="M88.881,124.4l.212.647h.679l-.552.393.212.647-.552-.4-.541.4.212-.647L88,125.047h.679Z" transform="translate(-79.091 -15.822)" fill="#fff"/>
    <path id="Path_1990" data-name="Path 1990" d="M88.881,151.2l.212.647h.679l-.552.4.212.637-.552-.393-.541.393.212-.637-.552-.4h.679Z" transform="translate(-79.091 -39.777)" fill="#fff"/>
    <path id="Path_1991" data-name="Path 1991" d="M88.881,178.1l.212.647h.679l-.552.393.212.647-.552-.4-.541.4.212-.647L88,178.747h.679Z" transform="translate(-79.091 -63.745)" fill="#fff"/>
    <path id="Path_1992" data-name="Path 1992" d="M88.881,204.9l.212.647h.679l-.552.4.212.637-.552-.393-.541.393.212-.637-.552-.4h.679Z" transform="translate(-79.091 -87.671)" fill="#fff"/>
    <path id="Path_1993" data-name="Path 1993" d="M88.881,231.8l.212.637h.679l-.552.4.212.647-.552-.4-.541.4.212-.647-.552-.4h.679Z" transform="translate(-79.091 -111.687)" fill="#fff"/>
    <path id="Path_1994" data-name="Path 1994" d="M107.581,138.5l.212.647h.679l-.552.4.212.637-.552-.393-.541.393.2-.637-.541-.4h.679Z" transform="translate(-95.898 -28.425)" fill="#fff"/>
    <path id="Path_1995" data-name="Path 1995" d="M107.581,165.4l.212.637h.679l-.552.4.212.647-.552-.4-.541.4.2-.647-.541-.4h.679Z" transform="translate(-95.898 -52.406)" fill="#fff"/>
    <path id="Path_1996" data-name="Path 1996" d="M107.581,192.2l.212.647h.679l-.552.4.212.637-.552-.393-.541.393.2-.637-.541-.4h.679Z" transform="translate(-95.898 -76.333)" fill="#fff"/>
    <path id="Path_1997" data-name="Path 1997" d="M107.581,219.1l.212.637h.679l-.552.4.212.647-.552-.4-.541.4.2-.647-.541-.4h.679Z" transform="translate(-95.898 -100.349)" fill="#fff"/>
    <path id="Path_1998" data-name="Path 1998" d="M126.491,124.4l.212.647h.669l-.541.393.2.647-.541-.4-.552.4.212-.647-.552-.393h.679Z" transform="translate(-112.884 -15.822)" fill="#fff"/>
    <path id="Path_1999" data-name="Path 1999" d="M126.491,151.2l.212.647h.669l-.541.4.2.637-.541-.393-.552.393.212-.637-.552-.4h.679Z" transform="translate(-112.884 -39.777)" fill="#fff"/>
    <path id="Path_2000" data-name="Path 2000" d="M126.491,178.1l.212.647h.669l-.541.393.2.647-.541-.4-.552.4.212-.647-.552-.393h.679Z" transform="translate(-112.884 -63.745)" fill="#fff"/>
    <path id="Path_2001" data-name="Path 2001" d="M126.491,204.9l.212.647h.669l-.541.4.2.637-.541-.393-.552.393.212-.637-.552-.4h.679Z" transform="translate(-112.884 -87.671)" fill="#fff"/>
    <path id="Path_2002" data-name="Path 2002" d="M126.491,231.8l.212.637h.669l-.541.4.2.647-.541-.4-.552.4.212-.647-.552-.4h.679Z" transform="translate(-112.884 -111.687)" fill="#fff"/>
    <path id="Path_2003" data-name="Path 2003" d="M145.191,138.5l.2.647h.679l-.541.4.2.637-.541-.393-.552.393.212-.637-.552-.4h.679Z" transform="translate(-129.691 -28.425)" fill="#fff"/>
    <path id="Path_2004" data-name="Path 2004" d="M145.191,165.4l.2.637h.679l-.541.4.2.647-.541-.4-.552.4.212-.647-.552-.4h.679Z" transform="translate(-129.691 -52.406)" fill="#fff"/>
    <path id="Path_2005" data-name="Path 2005" d="M145.191,192.2l.2.647h.679l-.541.4.2.637-.541-.393-.552.393.212-.637-.552-.4h.679Z" transform="translate(-129.691 -76.333)" fill="#fff"/>
    <path id="Path_2006" data-name="Path 2006" d="M145.191,219.1l.2.637h.679l-.541.4.2.647-.541-.4-.552.4.212-.647-.552-.4h.679Z" transform="translate(-129.691 -100.349)" fill="#fff"/>
    <path id="Path_2007" data-name="Path 2007" d="M164.091,124.4l.212.647h.679l-.552.393.212.647-.552-.4-.552.4.212-.647-.552-.393h.679Z" transform="translate(-146.678 -15.822)" fill="#fff"/>
    <path id="Path_2008" data-name="Path 2008" d="M164.091,151.2l.212.647h.679l-.552.4.212.637-.552-.393-.552.393.212-.637-.552-.4h.679Z" transform="translate(-146.678 -39.777)" fill="#fff"/>
    <path id="Path_2009" data-name="Path 2009" d="M164.091,178.1l.212.647h.679l-.552.393.212.647-.552-.4-.552.4.212-.647-.552-.393h.679Z" transform="translate(-146.678 -63.745)" fill="#fff"/>
    <path id="Path_2010" data-name="Path 2010" d="M164.091,204.9l.212.647h.679l-.552.4.212.637-.552-.393-.552.393.212-.637-.552-.4h.679Z" transform="translate(-146.678 -87.671)" fill="#fff"/>
    <path id="Path_2011" data-name="Path 2011" d="M164.091,231.8l.212.637h.679l-.552.4.212.647-.552-.4-.552.4.212-.647-.552-.4h.679Z" transform="translate(-146.678 -111.687)" fill="#fff"/>
    <path id="Path_2012" data-name="Path 2012" d="M182.791,138.5l.212.647h.679l-.552.4.212.637-.552-.393-.552.393.212-.637-.552-.4h.679Z" transform="translate(-163.485 -28.425)" fill="#fff"/>
    <path id="Path_2013" data-name="Path 2013" d="M182.791,165.4l.212.637h.679l-.552.4.212.647-.552-.4-.552.4.212-.647-.552-.4h.679Z" transform="translate(-163.485 -52.406)" fill="#fff"/>
    <path id="Path_2014" data-name="Path 2014" d="M182.791,192.2l.212.647h.679l-.552.4.212.637-.552-.393-.552.393.212-.637-.552-.4h.679Z" transform="translate(-163.485 -76.333)" fill="#fff"/>
    <path id="Path_2015" data-name="Path 2015" d="M182.791,219.1l.212.637h.679l-.552.4.212.647-.552-.4-.552.4.212-.647-.552-.4h.679Z" transform="translate(-163.485 -100.349)" fill="#fff"/>
    <path id="Path_2016" data-name="Path 2016" d="M201.781,124.4l.212.647h.679l-.552.393.212.647-.552-.4-.541.4.2-.647-.541-.393h.679Z" transform="translate(-180.561 -15.822)" fill="#fff"/>
    <path id="Path_2017" data-name="Path 2017" d="M201.781,151.2l.212.647h.679l-.552.4.212.637-.552-.393-.541.393.2-.637-.541-.4h.679Z" transform="translate(-180.561 -39.777)" fill="#fff"/>
    <path id="Path_2018" data-name="Path 2018" d="M201.781,178.1l.212.647h.679l-.552.393.212.647-.552-.4-.541.4.2-.647-.541-.393h.679Z" transform="translate(-180.561 -63.745)" fill="#fff"/>
    <path id="Path_2019" data-name="Path 2019" d="M201.781,204.9l.212.647h.679l-.552.4.212.637-.552-.393-.541.393.2-.637-.541-.4h.679Z" transform="translate(-180.561 -87.671)" fill="#fff"/>
    <path id="Path_2020" data-name="Path 2020" d="M201.781,231.8l.212.637h.679l-.552.4.212.647-.552-.4-.541.4.2-.647-.541-.4h.679Z" transform="translate(-180.561 -111.687)" fill="#fff"/>
  </g>
</svg>
